HIERARCHY
ROOT Hips
{
	OFFSET -0.001795 -0.223333 0.028219
	CHANNELS 6 Xposition Yposition Zposition Zrotation Yrotation Xrotation 
	JOINT LeftUpLeg
	{
		OFFSET 0.069520 -0.091406 -0.006815
		CHANNELS 3 Zrotation Yrotation Xrotation
		JOINT LeftLeg
		{
			OFFSET 0.034277 -0.375199 -0.004496
			CHANNELS 3 Zrotation Yrotation Xrotation
			JOINT LeftFoot
			{
				OFFSET -0.013596 -0.397961 -0.043693
				CHANNELS 3 Zrotation Yrotation Xrotation
				JOINT LeftToe
				{
					OFFSET 0.026358 -0.055791 0.119288
					CHANNELS 3 Zrotation Yrotation Xrotation
					End Site
					{
						OFFSET 0.000000 0.000000 0.000000
					}
				}
			}
		}
	}
	JOINT RightUpLeg
	{
		OFFSET -0.067670 -0.090522 -0.004320
		CHANNELS 3 Zrotation Yrotation Xrotation
		JOINT RightLeg
		{
			OFFSET -0.038290 -0.382569 -0.008850
			CHANNELS 3 Zrotation Yrotation Xrotation
			JOINT RightFoot
			{
				OFFSET 0.015774 -0.398415 -0.042312
				CHANNELS 3 Zrotation Yrotation Xrotation
				JOINT RightToe
				{
					OFFSET -0.025372 -0.048144 0.123348
					CHANNELS 3 Zrotation Yrotation Xrotation
					End Site
					{
						OFFSET 0.000000 0.000000 0.000000
					}
				}
			}
		}
	}
	JOINT Spine
	{
		OFFSET -0.002533 0.108963 -0.026696
		CHANNELS 3 Zrotation Yrotation Xrotation
		JOINT Spine1
		{
			OFFSET 0.005487 0.135180 0.001092
			CHANNELS 3 Zrotation Yrotation Xrotation
			JOINT Spine2
			{
				OFFSET 0.001457 0.052922 0.025425
				CHANNELS 3 Zrotation Yrotation Xrotation
				JOINT Neck
				{
					OFFSET -0.002778 0.213870 -0.042857
					CHANNELS 3 Zrotation Yrotation Xrotation
					JOINT Head
					{
						OFFSET 0.005152 0.064970 0.051349
						CHANNELS 3 Zrotation Yrotation Xrotation
						End Site
						{
							OFFSET 0.000000 0.000000 0.000000
						}
					}
				}
				JOINT LeftShoulder
				{
					OFFSET 0.078845 0.121749 -0.034090
					CHANNELS 3 Zrotation Yrotation Xrotation
					JOINT LeftArm
					{
						OFFSET 0.090977 0.030469 -0.008868
						CHANNELS 3 Zrotation Yrotation Xrotation
						JOINT LeftForeArm
						{
							OFFSET 0.259612 -0.012772 -0.027456
							CHANNELS 3 Zrotation Yrotation Xrotation
							JOINT LeftHand
							{
								OFFSET 0.249234 0.008986 -0.001171
								CHANNELS 3 Zrotation Yrotation Xrotation
								End Site
								{
									OFFSET 0.000000 0.000000 0.000000
								}
							}
						}
					}
				}
				JOINT RightShoulder
				{
					OFFSET -0.081759 0.118833 -0.038615
					CHANNELS 3 Zrotation Yrotation Xrotation
					JOINT RightArm
					{
						OFFSET -0.096012 0.032551 -0.009143
						CHANNELS 3 Zrotation Yrotation Xrotation
						JOINT RightForeArm
						{
							OFFSET -0.253742 -0.013329 -0.021401
							CHANNELS 3 Zrotation Yrotation Xrotation
							JOINT RightHand
							{
								OFFSET -0.255298 0.007772 -0.005559
								CHANNELS 3 Zrotation Yrotation Xrotation
								End Site
								{
									OFFSET 0.000000 0.000000 0.000000
								}
							}
						}
					}
				}
			}
		}
	}
}
MOTION
Frames: 9
Frame Time: 0.050000
0.000000 0.918323 0.000000 -2.802722 -4.164539 6.754507 12.362881 0.720243 -29.584080 -4.504059 0.606810 7.072166 2.556030 10.416586 23.840636 0.000000 0.000000 0.000000 -2.012612 1.203373 -12.955693 5.150717 -0.444137 15.569691 -3.710653 -7.573170 -4.655613 0.000000 0.000000 0.000000 0.108788 -1.153286 40.962889 -8.319375 2.480986 -23.700170 -3.232080 7.360212 26.460078 12.555371 -5.891170 -20.935592 0.000000 0.000000 0.000000 -21.088371 -22.773568 10.203918 -40.538362 -22.678470 0.839608 3.652129 -28.797396 0.175423 0.000000 0.000000 0.000000 29.996594 10.070994 7.348228 48.145768 33.090645 5.588001 -4.056525 38.370059 1.163112 0.000000 0.000000 0.000000 
0.013717 0.916381 0.019544 -3.342710 -5.272684 7.782135 12.137548 0.767437 -29.313429 -4.473089 0.626106 7.285675 3.268974 10.901034 22.178332 0.000000 0.000000 0.000000 -3.010040 1.198606 -13.393404 6.211551 -0.630989 16.694544 -3.709326 -7.289276 -5.103129 0.000000 0.000000 0.000000 -0.936567 -0.541988 40.595788 -7.675908 2.319334 -23.348273 -4.007554 7.351793 25.894269 11.380391 -5.071203 -21.167446 0.000000 0.000000 0.000000 -20.577824 -20.690292 9.125634 -40.125523 -22.794457 0.822875 0.745180 -28.729725 0.929677 0.000000 0.000000 0.000000 30.977013 8.638204 6.276641 49.660199 32.637505 5.765268 -0.810313 39.084938 2.355755 0.000000 0.000000 0.000000 
0.026856 0.916776 0.038166 -3.257231 -5.260875 7.764550 11.494543 0.575542 -28.899492 -5.278117 0.807283 8.516086 3.759698 11.257740 19.868458 0.000000 0.000000 0.000000 -3.776057 1.071262 -12.393407 6.179866 -0.625344 16.967939 -4.078423 -8.527534 -4.619426 0.000000 0.000000 0.000000 -1.502819 -0.322850 40.366917 -7.617700 2.299343 -23.207173 -4.293547 7.678999 25.952730 11.599372 -5.956973 -17.569511 0.000000 0.000000 0.000000 -21.349646 -21.267367 9.423372 -38.675888 -24.048979 1.108822 0.813382 -25.760931 0.789323 0.000000 0.000000 0.000000 31.508440 8.747044 6.608952 47.810814 32.792142 5.275327 0.727409 38.831712 2.837428 0.000000 0.000000 0.000000 
0.037818 0.920927 0.055067 -3.640996 -7.030214 8.420969 11.314752 0.679904 -28.195643 -5.296788 0.860969 8.745321 4.809642 12.349458 19.034225 0.000000 0.000000 0.000000 -3.443480 1.155275 -12.838312 5.045904 -0.277461 16.473729 -4.097877 -9.936765 -0.839871 0.000000 0.000000 0.000000 -3.317132 0.739866 41.162567 -7.685668 2.255534 -23.886164 -4.304673 7.936343 26.354185 12.008188 -6.687728 -15.900109 0.000000 0.000000 0.000000 -20.204010 -21.753006 9.772454 -39.053281 -24.676884 1.222780 2.172513 -25.943716 0.507918 0.000000 0.000000 0.000000 33.610296 9.315668 6.997989 46.072299 32.381714 4.680077 1.936230 40.232028 3.327592 0.000000 0.000000 0.000000 
0.046629 0.922814 0.070500 -4.203396 -7.386578 9.227548 10.908424 0.626271 -28.472993 -4.697195 0.771662 9.674818 5.211361 12.736931 17.737966 0.000000 0.000000 0.000000 -3.392416 1.150952 -12.608797 4.707798 -0.221145 14.748788 -3.987096 -10.875458 2.630109 0.000000 0.000000 0.000000 -4.030928 1.108311 41.159169 -7.306933 2.158173 -23.863668 -4.345472 8.195012 26.762479 12.323007 -6.601152 -17.172532 0.000000 0.000000 0.000000 -19.709847 -21.784967 9.740187 -38.934907 -26.523565 1.734329 4.693841 -25.619601 -0.047660 0.000000 0.000000 0.000000 32.701018 8.855799 6.659189 46.733861 32.997225 5.030425 4.210511 40.923660 4.291826 0.000000 0.000000 0.000000 
0.053630 0.926385 0.084655 -4.795285 -8.842154 10.218160 11.246518 0.866076 -28.592805 -4.950015 0.888338 10.359299 6.021387 13.674861 17.454500 0.000000 0.000000 0.000000 -2.861757 1.229121 -12.922245 3.858038 -0.015941 13.848012 -3.810082 -11.487169 5.556111 0.000000 0.000000 0.000000 -4.918051 1.778886 41.546636 -7.580857 2.134498 -25.398869 -4.312683 8.480425 27.591871 13.512920 -7.793070 -16.129643 0.000000 0.000000 0.000000 -18.971311 -21.918305 9.913407 -38.604090 -27.258175 1.757576 6.691957 -26.278901 -0.473635 0.000000 0.000000 0.000000 34.747372 8.866997 6.670516 43.932956 31.314866 3.683129 7.356032 43.334523 5.746377 0.000000 0.000000 0.000000 
0.059034 0.928373 0.098403 -5.303059 -9.371004 11.291519 11.116651 0.915276 -29.113795 -4.552009 0.841315 11.139225 6.427576 14.150335 16.796463 0.000000 0.000000 0.000000 -2.806052 1.307829 -13.570911 3.739686 -0.003503 12.962312 -3.777737 -12.630835 9.475108 0.000000 0.000000 0.000000 -5.451559 2.111607 41.356755 -7.081489 2.008297 -25.346018 -4.364239 8.238744 27.109637 12.964499 -7.441443 -16.001658 0.000000 0.000000 0.000000 -19.687214 -21.463297 9.895561 -37.776863 -27.898563 1.868162 7.750285 -26.731218 -0.699422 0.000000 0.000000 0.000000 35.359003 9.019597 6.608249 43.821693 30.346005 3.378812 9.107267 44.748951 6.680127 0.000000 0.000000 0.000000 
0.063083 0.930075 0.112112 -6.118303 -10.542813 11.946293 11.499993 1.163286 -29.153545 -4.336852 0.872314 12.323047 7.101928 14.955746 16.126135 0.000000 0.000000 0.000000 -2.527069 1.424691 -14.376249 3.825176 0.033696 13.364700 -3.555954 -13.328864 13.120287 0.000000 0.000000 0.000000 -5.944805 2.491221 40.889505 -7.000898 1.952149 -25.487794 -3.814773 8.093642 26.774085 13.544053 -8.144066 -15.220313 0.000000 0.000000 0.000000 -20.262732 -20.798777 9.827728 -37.266412 -27.754314 1.711479 7.872182 -27.710269 -0.718569 0.000000 0.000000 0.000000 37.176111 9.126961 6.409947 41.424570 28.499460 2.417362 11.273627 45.240686 7.487691 0.000000 0.000000 0.000000 
0.065397 0.931372 0.125993 -6.380717 -11.207599 12.003746 11.583983 1.229876 -28.708047 -4.530502 0.991615 13.402756 7.517906 15.485225 15.415246 0.000000 0.000000 0.000000 -3.004265 1.490026 -15.146384 4.350464 -0.022811 13.994904 -3.756220 -15.060581 19.081885 0.000000 0.000000 0.000000 -6.092614 2.689913 41.106018 -6.908348 1.900985 -26.170605 -3.560730 7.322044 26.807524 13.860290 -8.587292 -14.935625 0.000000 0.000000 0.000000 -21.330945 -20.591918 10.197391 -35.992923 -27.107777 1.306473 7.767699 -28.088824 -0.674411 0.000000 0.000000 0.000000 37.943375 9.055805 5.790891 40.923274 26.761925 1.923160 13.599782 45.823505 8.455814 0.000000 0.000000 0.000000 
